<svg width="914" height="400" fill="none" xmlns="http://www.w3.org/2000/svg">
  <path fill="#fff" d="M0 0h914v400H0z"/>
  <path d="M422.757 192.785c-.729 0-1.326-.214-1.791-.642a2.114 2.114 0 01-.697-1.6c0-.647.232-1.176.697-1.586.465-.41 1.062-.615 1.791-.615.738 0 1.335.205 1.791.615.465.41.697.939.697 1.586 0 .656-.232 1.194-.697 1.613-.456.42-1.053.629-1.791.629zm2.133 15.969c0 2.069-.506 3.723-1.518 4.963-1.012 1.239-2.47 1.859-4.375 1.859-.629 0-1.317-.137-2.064-.41v-3.391c.601.338 1.134.506 1.599.506 1.358 0 2.037-1.066 2.037-3.199V195h4.321v13.754zm5.264-15.969c-.729 0-1.326-.214-1.791-.642a2.114 2.114 0 01-.697-1.6c0-.647.232-1.176.697-1.586.465-.41 1.062-.615 1.791-.615.738 0 1.335.205 1.791.615.465.41.697.939.697 1.586 0 .656-.232 1.194-.697 1.613-.456.42-1.053.629-1.791.629zM432.287 209h-4.321v-14h4.321v14zm12.209-10.104c-.519-.282-1.125-.423-1.818-.423-.939 0-1.673.346-2.201 1.039-.529.683-.793 1.618-.793 2.802V209h-4.321v-14h4.321v2.598h.054c.684-1.896 1.914-2.844 3.692-2.844.456 0 .811.055 1.066.164v3.978zM457.608 209h-4.088v-2.01h-.054c-.939 1.568-2.329 2.352-4.17 2.352-1.358 0-2.429-.383-3.213-1.149-.775-.774-1.162-1.804-1.162-3.089 0-2.717 1.608-4.284 4.826-4.704l3.801-.505c0-1.532-.83-2.297-2.489-2.297-1.668 0-3.254.496-4.758 1.49v-3.254c.602-.31 1.422-.583 2.461-.82 1.049-.237 2.001-.356 2.858-.356 3.992 0 5.988 1.992 5.988 5.975V209zm-4.06-5.688v-.943l-2.543.328c-1.404.183-2.106.816-2.106 1.901 0 .492.169.897.506 1.216.346.31.811.465 1.395.465.811 0 1.472-.278 1.982-.834.51-.565.766-1.276.766-2.133z" fill="#333"/>
  <path d="M461.71 209.273c-.364 0-.674-.127-.929-.382a1.264 1.264 0 01-.383-.93c0-.374.123-.688.369-.943.255-.256.57-.383.943-.383.183 0 .351.036.506.109.164.064.305.155.424.274a1.297 1.297 0 01.396.943c0 .182-.036.355-.109.519a1.467 1.467 0 01-.287.411c-.119.118-.26.209-.424.273a1.17 1.17 0 01-.506.109zm16.352-1.353c0 2.598-.592 4.521-1.777 5.769-1.176 1.258-2.994 1.887-5.455 1.887a9.602 9.602 0 01-4.348-1.025v-1.778c1.522.848 2.972 1.272 4.348 1.272 3.655 0 5.482-1.932 5.482-5.797v-1.682h-.054c-1.076 1.842-2.716 2.762-4.922 2.762-.866 0-1.659-.159-2.379-.478a5.133 5.133 0 01-1.832-1.381c-.511-.602-.907-1.331-1.19-2.188-.282-.866-.423-1.841-.423-2.926 0-1.148.15-2.192.451-3.13.301-.948.729-1.76 1.285-2.434a5.69 5.69 0 012.01-1.559c.793-.373 1.681-.56 2.666-.56 1.978 0 3.422.802 4.334 2.406h.054V195h1.75v12.92zm-1.75-7.424a4.37 4.37 0 00-1.189-3.021 4.109 4.109 0 00-1.34-.93 3.973 3.973 0 00-1.695-.356c-.729 0-1.39.142-1.983.424a4.375 4.375 0 00-1.504 1.203c-.41.52-.729 1.153-.957 1.901-.218.738-.328 1.572-.328 2.502 0 .857.105 1.631.315 2.324.209.693.506 1.281.888 1.764a4 4 0 001.381 1.121 4.129 4.129 0 001.819.396c.692 0 1.321-.123 1.886-.369a4.398 4.398 0 001.45-1.039c.401-.447.71-.966.929-1.559a5.626 5.626 0 00.328-1.941v-2.42zm11.431 8.832c-1.04 0-1.974-.173-2.803-.519a6.053 6.053 0 01-2.106-1.463 6.532 6.532 0 01-1.339-2.284c-.31-.884-.465-1.863-.465-2.939 0-1.167.164-2.21.492-3.131.328-.92.793-1.7 1.394-2.338a6.012 6.012 0 012.202-1.476c.856-.338 1.813-.506 2.871-.506 1.011 0 1.923.168 2.734.506a5.507 5.507 0 012.064 1.435c.566.629.999 1.395 1.299 2.297.301.902.451 1.928.451 3.076 0 1.094-.159 2.092-.478 2.994a6.671 6.671 0 01-1.34 2.311 5.964 5.964 0 01-2.133 1.504c-.838.355-1.786.533-2.843.533zm.136-13.139c-.765 0-1.458.133-2.078.397a4.379 4.379 0 00-1.599 1.162c-.438.501-.775 1.121-1.012 1.859-.237.73-.356 1.559-.356 2.489 0 .875.119 1.663.356 2.365a5.4 5.4 0 00.998 1.805c.437.501.966.888 1.586 1.162.62.264 1.312.396 2.078.396.784 0 1.476-.127 2.078-.383a4.196 4.196 0 001.531-1.134c.42-.502.734-1.112.944-1.832.218-.72.328-1.541.328-2.461 0-1.887-.419-3.327-1.258-4.321-.839-1.002-2.037-1.504-3.596-1.504z" fill="#555"/>
</svg>
